<svg width="98" height="69" viewBox="0 0 98 69" fill="none" xmlns="http://www.w3.org/2000/svg">
<path d="M35.9763 13.5162C38.8034 12.9325 41.7136 12.7555 44.59 12.9946C45.132 13.038 45.6863 13.1032 46.1822 13.333C46.7704 13.6062 47.2323 14.0937 47.6789 14.5688C50.3889 17.4627 53.1021 20.3566 55.8122 23.2505C56.4496 23.9336 57.0994 24.6229 57.8878 25.1166C60.0466 26.4673 62.7906 26.1319 65.3313 26.0512C73.1382 25.7997 80.8064 28.4204 87.714 32.0967C89.7435 33.1773 91.7822 34.4006 93.1527 36.2606C94.5231 38.1205 95.0744 40.7628 93.938 42.7749C92.8108 44.7683 90.4303 45.616 88.216 46.1439C84.1047 47.1251 79.8887 47.5567 75.685 47.9852C68.9037 48.6776 62.0761 49.37 55.2855 48.78C56.4127 46.1811 57.5398 43.5822 58.667 40.9802C56.0554 40.5331 53.4347 40.1449 50.8078 39.8127C49.8839 39.6947 48.9076 39.5954 48.0576 39.9804C47.3339 40.3126 46.8042 40.9554 46.3115 41.5857C45.1166 43.1134 43.9679 44.6814 42.8777 46.2867C41.7259 47.9789 41.3194 48.1435 39.2838 48.0317C35.3542 47.8206 31.6309 46.3177 28.0246 44.8522C24.8126 43.5481 21.5975 42.244 18.3854 40.9398C15.5429 39.7879 12.6511 38.6049 10.2983 36.6269C9.67929 36.1053 9.10032 35.5309 8.64453 34.8602C7.37881 32.9972 7.20019 30.5846 7.42808 28.3396C8.62606 28.2682 9.82403 28.1937 11.0251 28.1223C10.8557 23.9398 10.6863 19.7542 10.517 15.5717C10.5016 15.2178 10.5046 14.8203 10.7572 14.575C10.9265 14.4104 11.1668 14.3577 11.3946 14.3111C13.4056 13.9167 15.4536 13.7149 17.5046 13.7149C17.9296 13.7149 18.3762 13.7273 18.7457 13.9385C19.1892 14.19 19.4479 14.6713 19.7004 15.1153C21.2741 17.9005 23.553 20.2013 25.8012 22.468C26.6758 23.3498 27.5504 24.2317 28.425 25.1135C28.7976 25.4892 29.1764 25.868 29.6291 26.1382C30.4853 26.6505 31.5231 26.7219 32.5209 26.7467C34.846 26.8057 37.165 26.6536 39.487 26.5139C40.7682 26.4362 40.7682 25.9984 40.7374 24.7688C40.7189 23.9584 40.5618 23.1263 40.2939 22.3655C39.7457 20.7913 38.7233 19.4375 37.8425 18.0464C37.6454 17.7359 35.4712 13.6125 35.9793 13.5162H35.9763Z" stroke="#9F8AEF" stroke-width="2" stroke-miterlimit="10"/>
<path d="M42.1263 48.4354C39.293 52.3601 36.7616 56.5022 34.5596 60.8213C38.7664 60.8338 42.9763 60.8493 47.183 60.8617C47.6388 58.6416 49.2833 56.9059 50.6599 55.1143C51.9164 53.4779 52.9943 51.7019 53.8658 49.8295" stroke="#9F8AEF" stroke-width="2" stroke-miterlimit="10"/>
<path d="M42.4989 47.271C42.1971 47.6653 41.9599 48.1094 41.7998 48.5782" stroke="#9F8AEF" stroke-width="2" stroke-miterlimit="10"/>
<path d="M54.996 48.6403C54.5002 49.0967 54.0906 49.6494 53.798 50.258" stroke="#9F8AEF" stroke-width="2" stroke-miterlimit="10"/>
</svg>
