<?xml version="1.0" encoding="UTF-8"?>
<svg id="Layer_2" data-name="Layer 2" xmlns="http://www.w3.org/2000/svg" viewBox="0 0 318.22 222.22">
  <defs>
    <style>
      .cls-1 {
        fill: none;
        stroke: #000;
        stroke-miterlimit: 10;
        stroke-width: 2px;
      }
    </style>
  </defs>
  <path class="cls-1" d="m116.82,43.53c9.18-1.88,18.63-2.45,27.97-1.68,1.76.14,3.56.35,5.17,1.09,1.91.88,3.41,2.45,4.86,3.98,8.8,9.32,17.61,18.64,26.41,27.96,2.07,2.2,4.18,4.42,6.74,6.01,7.01,4.35,15.92,3.27,24.17,3.01,25.35-.81,50.25,7.63,72.68,19.47,6.59,3.48,13.21,7.42,17.66,13.41s6.24,14.5,2.55,20.98c-3.66,6.42-11.39,9.15-18.58,10.85-13.35,3.16-27.04,4.55-40.69,5.93-22.02,2.23-44.19,4.46-66.24,2.56,3.66-8.37,7.32-16.74,10.98-25.12-8.48-1.44-16.99-2.69-25.52-3.76-3-.38-6.17-.7-8.93.54-2.35,1.07-4.07,3.14-5.67,5.17-3.88,4.92-7.61,9.97-11.15,15.14-3.74,5.45-5.06,5.98-11.67,5.62-12.76-.68-24.85-5.52-36.56-10.24-10.43-4.2-20.87-8.4-31.3-12.6-9.23-3.71-18.62-7.52-26.26-13.89-2.01-1.68-3.89-3.53-5.37-5.69-4.11-6-4.69-13.77-3.95-21,3.89-.23,7.78-.47,11.68-.7-.55-13.47-1.1-26.95-1.65-40.42-.05-1.14-.04-2.42.78-3.21.55-.53,1.33-.7,2.07-.85,6.53-1.27,13.18-1.92,19.84-1.92,1.38,0,2.83.04,4.03.72,1.44.81,2.28,2.36,3.1,3.79,5.11,8.97,12.51,16.38,19.81,23.68,2.84,2.84,5.68,5.68,8.52,8.52,1.21,1.21,2.44,2.43,3.91,3.3,2.78,1.65,6.15,1.88,9.39,1.96,7.55.19,15.08-.3,22.62-.75,4.16-.25,4.16-1.66,4.06-5.62-.06-2.61-.57-5.29-1.44-7.74-1.78-5.07-5.1-9.43-7.96-13.91-.64-1-7.7-14.28-6.05-14.59Z"/>
  <path class="cls-1" d="m136.79,155.99c-9.2,12.64-17.42,25.98-24.57,39.89,13.66.04,27.33.09,40.99.13,1.48-7.15,6.82-12.74,11.29-18.51,4.08-5.27,7.58-10.99,10.41-17.02"/>
  <path class="cls-1" d="m138,152.24c-.98,1.27-1.75,2.7-2.27,4.21"/>
  <path class="cls-1" d="m178.58,156.65c-1.61,1.47-2.94,3.25-3.89,5.21"/>
</svg>