<?xml version="1.0" encoding="UTF-8"?>
<svg id="Layer_2" data-name="Layer 2" xmlns="http://www.w3.org/2000/svg" viewBox="0 0 186.67 167.11">
  <defs>
    <style>
      .cls-1 {
        fill: none;
        stroke: #000;
        stroke-miterlimit: 10;
        stroke-width: 2px;
      }
    </style>
  </defs>
  <path class="cls-1" d="m39.32,65.56c-7.87-7.04-12.47-18.37-9.43-28.48.89-2.97,2.46-5.82,4.86-7.77,5.12-4.16,12.51-3.39,19.04-2.41,2.56.39,5.26.84,7.23,2.51,1.53,1.3,2.43,3.2,3.04,5.11,1.79,5.58,1.49,11.68-.02,17.35-1.39,5.19-4.19,10.52-9.17,12.53"/>
  <path class="cls-1" d="m93.33,63.64c-5.15-5.17-10.49-10.67-12.39-17.71-1.6-5.92-.54-12.27,1.51-18.04,1.51-4.27,3.77-8.58,7.69-10.84,1.79-1.03,3.81-1.56,5.83-2,2.98-.64,6-1.1,9.04-1.36,4.78-.42,9.89-.28,13.98,2.25,2.51,1.55,4.44,3.9,5.97,6.42,4.24,7,5.57,15.7,3.62,23.64s-7.15,15.04-14.14,19.3"/>
  <path class="cls-1" d="m116.66,63.61c-1.5.12-2.8,1.46-2.87,2.96,9.38.24,17.72,8.9,17.61,18.28-.02,1.52-.2,3.15.59,4.45,1.37,2.25,4.7,2.1,7.16,1.18,4.51-1.69,8.23-4.92,12.32-7.46s9.06-4.44,13.66-3.04c3.7,1.13,6.54,4.27,8.1,7.81s2.01,7.46,2.21,11.33c.59,11.28-.76,22.66-3.97,33.5-.34,1.16-.73,2.36-1.52,3.28-1.28,1.48-3.36,1.98-5.31,2.07-12.25.61-22.02-10.59-34.1-12.75-.51,4.78-.38,9.65-1.58,14.3s-4.08,9.23-8.62,10.82c-1.98.69-4.12.76-6.21.83-5.75.17-11.51.35-17.26.52-4.76.14-9.52.29-14.28.34-13.92.15-27.84-.51-41.68-1.97-2.41-.25-4.9-.56-7.01-1.76-4.43-2.53-5.88-8.14-6.6-13.18-2.15-14.92-1.6-30.22,1.61-44.95,1.01-4.63.19-8.58,1.84-13.02s4.98-8.52,9.52-9.86c8.13-2.41,16.03-.12,24.51.06,16.2.35,32.84.69,48.98-.64"/>
  <path class="cls-1" d="m37.76,64.02c.88,1.12,2.18,1.91,3.59,2.15"/>
  <path class="cls-1" d="m56.4,63.68c-1.59.67-3.13,1.45-4.61,2.34"/>
  <path class="cls-1" d="m92.54,62.82c1.31,1.98,3.02,3.68,5,4.98"/>
</svg>