<svg width="88" height="78" viewBox="0 0 88 78" fill="none" xmlns="http://www.w3.org/2000/svg">
<path d="M18.5362 30.6007C14.8262 27.3147 12.6576 22.0263 14.0907 17.3074C14.5103 15.9211 15.2504 14.5909 16.3818 13.6807C18.7955 11.739 22.2793 12.0984 25.3577 12.5558C26.5645 12.7378 27.8374 12.9479 28.766 13.7274C29.4873 14.3342 29.9116 15.221 30.1992 16.1125C31.043 18.717 30.9016 21.5642 30.1897 24.2108C29.5345 26.6332 28.2145 29.1211 25.8668 30.0592" stroke="#9F8AEF" stroke-width="2" stroke-miterlimit="10"/>
<path d="M43.9976 29.7045C41.5698 27.2914 39.0525 24.7242 38.1568 21.4382C37.4025 18.675 37.9022 15.7111 38.8686 13.0179C39.5804 11.0248 40.6459 9.0131 42.4938 7.95823C43.3377 7.47747 44.2899 7.23009 45.2422 7.02471C46.647 6.72599 48.0707 6.51128 49.5038 6.38992C51.7572 6.19388 54.1662 6.25923 56.0943 7.44013C57.2776 8.1636 58.1874 9.26049 58.9087 10.4367C60.9075 13.704 61.5345 17.7648 60.6152 21.4709C59.6959 25.1769 57.2446 28.4909 53.9493 30.4793" stroke="#9F8AEF" stroke-width="2" stroke-miterlimit="10"/>
<path d="M54.9959 29.6905C54.2887 29.7465 53.6759 30.372 53.6429 31.0721C58.0648 31.1841 61.9964 35.2263 61.9446 39.6044C61.9352 40.3139 61.8503 41.0747 62.2227 41.6815C62.8686 42.7317 64.4384 42.6617 65.5981 42.2323C67.7242 41.4435 69.4779 39.9358 71.406 38.7503C73.3341 37.5647 75.6771 36.6779 77.8456 37.3313C79.5898 37.8588 80.9287 39.3244 81.6641 40.9767C82.3995 42.629 82.6117 44.4587 82.7059 46.2651C82.9841 51.5301 82.3477 56.8418 80.8344 61.9015C80.6741 62.4429 80.4903 63.003 80.1178 63.4325C79.5144 64.1233 78.5339 64.3566 77.6146 64.3987C71.8397 64.6834 67.2339 59.4557 61.5392 58.4475C61.2987 60.6786 61.36 62.9517 60.7943 65.1221C60.2286 67.2926 58.8709 69.4303 56.7307 70.1725C55.7973 70.4945 54.7884 70.5272 53.8032 70.5599C51.0925 70.6392 48.3771 70.7232 45.6665 70.8026C43.4225 70.8679 41.1785 70.9379 38.9346 70.9613C32.3724 71.0313 25.8102 70.7232 19.2858 70.0418C18.1497 69.9251 16.9758 69.7804 15.9811 69.2203C13.8927 68.0394 13.2092 65.4209 12.8698 63.0684C11.8562 56.1044 12.1155 48.963 13.6287 42.0876C14.1049 39.9265 13.7183 38.0828 14.4962 36.0104C15.274 33.938 16.8438 32.0336 18.9841 31.4082C22.8167 30.2833 26.5409 31.3522 30.5386 31.4362C38.1756 31.5995 46.02 31.7582 53.6287 31.1375" stroke="#9F8AEF" stroke-width="2" stroke-miterlimit="10"/>
<path d="M17.8008 29.8819C18.2157 30.4046 18.8285 30.7734 19.4932 30.8854" stroke="#9F8AEF" stroke-width="2" stroke-miterlimit="10"/>
<path d="M26.5881 29.7232C25.8385 30.0359 25.1126 30.4 24.4149 30.8154" stroke="#9F8AEF" stroke-width="2" stroke-miterlimit="10"/>
<path d="M43.6252 29.3218C44.2428 30.2459 45.0489 31.0394 45.9823 31.6462" stroke="#9F8AEF" stroke-width="2" stroke-miterlimit="10"/>
</svg>
