<?xml version="1.0" encoding="UTF-8"?>
<svg id="Layer_1" data-name="Layer 1" xmlns="http://www.w3.org/2000/svg" viewBox="0 0 595.28 471.11">
  <defs>
    <style>
      .cls-1, .cls-2, .cls-3, .cls-4 {
        stroke: #000;
        stroke-miterlimit: 10;
      }

      .cls-1, .cls-3 {
        fill: none;
      }

      .cls-5 {
        stroke-width: 0px;
      }

      .cls-5, .cls-4 {
        fill: #fff;
      }

      .cls-3 {
        stroke-width: 2px;
      }
    </style>
  </defs>
  <g id="Layer_2" data-name="Layer 2">
    <path class="cls-3" d="m126.35,116.63c-1.88-7.8-5.68-15.13-10.97-21.15-6.96-7.92-16.22-13.4-25.37-18.64-14.53-8.32-29.28-16.2-44.06-24.05-4.71-2.5-9.2-4.45-6.87-10.62,1.87-4.94,6.96-6.3,11.75-5.22,11.24,2.53,23.63,12.1,33.78,17.55,12.99,6.98,25.93,14.08,38.81,21.28,11.15,6.24,22.41,12.61,34.72,16.01,16.81,4.64,34.59,3.5,52.01,2.63,48.38-2.41,97.13-2.35,144.97,5.23,14.27,2.26,28.58,5.2,43.03,4.64,16.48-.63,32.42-5.78,47.95-11.34,35.27-12.63,69.7-27.6,102.99-44.78,4.24,11.54-.06,24.32-4.8,35.66-13.3,31.83-30.27,62.12-50.48,90.07-8.12,11.23-16.98,22.55-20.04,36.07-5.68,25.1,9.98,50.62,7.7,76.25-1.31,14.76-8.55,28.88-7.45,43.65,1.17,15.68,11.67,30.15,10,45.79-1.48,13.85-12.25,28.25-5.25,40.3,2.58,4.44,7.35,9.86,3.9,13.65-1.72,1.88-4.61,1.93-7.16,1.83-125.96-4.87-252.07-12.63-377.95-6.11-7,.36-15.05.36-19.69-4.91-2.22-2.52-3.23-5.84-4.18-9.05-2.77-9.33-5.55-18.67-8.32-28-1.66-5.58-3.33-11.32-2.85-17.12.62-7.45,4.72-14.13,6.53-21.38,4.45-17.86-5.34-36.18-5.11-54.58.18-14.84,6.88-29.05,6.93-43.89.02-5.7-.95-11.4-.56-17.09,1.3-18.76,16.89-33.84,19.85-52.41,3.41-21.38-10.33-41.19-21.53-59.72-12.16-20.13-23.41-42.46-29.7-65.22-.07-.26-.14-.53-.2-.79"/>
    <path class="cls-1" d="m61.77,89.55l4.02-13.08"/>
    <path class="cls-1" d="m63.78,97.01c3.26-2.83,5.48-6.82,6.16-11.07"/>
    <path class="cls-1" d="m66.77,105.37c5.71-3.19,7.78-10.25,9.33-16.6"/>
    <path class="cls-1" d="m75.69,120.23c3.33-4.03,8.47-6.05,12.53-9.34,4.57-3.71,7.73-9.11,8.71-14.91"/>
    <path class="cls-1" d="m86.99,134.27c4.85-.94,9.28-3.86,12.06-7.94"/>
    <path class="cls-1" d="m89.34,145.59c8.99-3.02,17.08-8.66,23.02-16.05"/>
    <path class="cls-1" d="m441.17,153.5c1.12,9.37,7.51,17.14,13.64,24.32,3.39,3.97,6.78,7.94,10.16,11.91"/>
    <path class="cls-1" d="m444.44,145.04c14.59,8.85,25.79,23.54,42.05,28.73"/>
    <path class="cls-1" d="m461.01,142.71c5.34,2.17,10.67,4.33,16.01,6.5"/>
    <path class="cls-1" d="m468.86,139.54c8.85,5.54,19.03,8.93,29.43,9.8"/>
    <path class="cls-1" d="m489.33,117.54c8.54,3.2,17.63,4.93,26.74,5.09"/>
    <path class="cls-1" d="m506.02,110.1l11.28,2.26"/>
    <path class="cls-3" d="m406.46,139.28c8.62-7.88,17.33-15.84,27.52-21.55,10.68-5.98,22.61-9.28,34.01-13.72,23.55-9.18,44.82-23.25,65.88-37.21"/>
    <path class="cls-2" d="m280.34,213.49c4.44-.29,8.96-.4,13.3.62,4.3,1.01,8.26,3.1,12.17,5.16,1.12.59,2.44,1.62,2.04,2.82-.16.48-.56.83-.95,1.15-8.91,7.42-18.06,14.95-28.91,19.04-14.98,5.65-31.64,4.17-47.43,1.56-6.54-1.08-12.1-3.44-7.43-9.5,3.83-4.97,11.69-8.66,17.22-11.27,12.47-5.9,26.29-8.68,40-9.58Z"/>
    <path class="cls-2" d="m147.41,212.02c-5.56-2.1-11.63-2.39-17.4-3.87-8.19-2.1-16.75-6.61-24.6-3.47-.35,3.13,1.58,6.02,3.43,8.58,7.32,10.14,15.19,20.75,26.68,25.68,2.33,1,4.83,1.75,7.36,1.68,3.75-.12,7.26-2.05,10.03-4.59,9.47-8.67,6.07-19.64-5.51-24Z"/>
    <path class="cls-3" d="m157.77,306.49c1.85,2.53,3.71,5.06,5.56,7.59.83,1.14,1.89,2.39,3.3,2.37.74-.01,1.42-.39,2.03-.81,4.13-2.78,6.69-7.36,10.43-10.65,6.21-5.46,14.89-6.81,22.54-9.94,2.11-.86,4.24-1.94,5.6-3.77s1.7-4.6.22-6.33c-.73-.84-1.77-1.33-2.79-1.78-15.04-6.62-31.82-9.22-48.16-7.45-20.68,2.24-4.61,22.75,1.26,30.77Z"/>
    <path class="cls-2" d="m241.84,352.78c5.59-2.62,12.1-1.25,18.25-.75,6.15.5,13.4-.53,16.5-5.87,1.42-2.44,3.48-6.18,5.83-4.61-2.9,6.89-8.05,12.54-13.11,18.04-3.24,3.53-6.55,7.11-10.68,9.53-4.58,2.68-9.93,3.79-15.23,4.06-19.74,1.02-38.83-8.85-58.57-7.83-8.18.42-16.2,2.71-24.38,2.97s-17.15-2.02-21.96-8.65c-1.64-2.27-2.69-4.9-3.89-7.43-5.04-10.62-13.04-19.83-22.86-26.29-.02-1.21.73-1.82.71-3.03,3.99-1.89,7.19,3.47,10.14,6.75,4.23,4.68,11.21,5.79,17.48,5.1s12.31-2.84,18.58-3.53c7.05-.77,14.16.33,21.18,1.44,10.97,1.73,22.22,3.55,31.82,9.13,5.1,2.96,9.6,6.91,14.86,9.57,6.49,3.28,8.05,1.25,15.31,1.42Z"/>
    <path class="cls-4" d="m180.16,353.95c6.11.11,12.27.69,18.06,2.64,8.66,2.91,16.01,8.68,23.18,14.35-4.76-3.91-11.66-2.89-17.8-3.41-5.23-.45-10.31-2.17-15.56-2.45-6.18-.32-30.78,8.27-33.91,1.1-4.51-10.33,21.36-12.32,26.02-12.23Z"/>
    <path class="cls-3" d="m140.63,365.68c1.6,12.5,4.76,25.83,14.3,34.07,8.97,7.75,21.63,9.3,33.48,9.63,13.38.37,26.77-.4,40.14-1.16,7.28-.42,15.08-1.02,20.74-5.61,6.59-5.33,8.42-14.46,9.8-22.83"/>
    <path class="cls-5" d="m272.13,222.05c4.09-.02,8.19-.04,12.28-.06,2.43-.01,5.66-.74,5.76-3.17.1-2.51-3.25-3.42-5.76-3.5-5.36-.17-11.38-.1-15.18,3.69-.36.36-.71.81-.64,1.31.08.55.63.9,1.14,1.11,1.31.55,2.77.75,4.18.58"/>
    <path class="cls-5" d="m140.38,217.66c2.98,4.14,8.13,6.63,13.22,6.39-.34-6.73-7.73-12.15-14.25-10.44-.7,1.96,0,4.34,1.65,5.61"/>
  </g>
</svg>