<svg width="93" height="73" viewBox="0 0 93 73" fill="none" xmlns="http://www.w3.org/2000/svg">
<path d="M19.7395 18.0722C19.4458 16.8636 18.8521 15.7277 18.0257 14.7949C16.9383 13.5677 15.4916 12.7186 14.0621 11.9066C11.7921 10.6174 9.48776 9.39636 7.1787 8.17998C6.44286 7.7926 5.74139 7.49044 6.10541 6.53438C6.39755 5.76891 7.19276 5.55817 7.9411 5.72552C9.69711 6.11755 11.6328 7.60045 13.2185 8.44495C15.2479 9.52652 17.2695 10.6267 19.2818 11.7424C21.0237 12.7093 22.7828 13.6963 24.706 14.2232C27.3322 14.9421 30.11 14.7655 32.8315 14.6307C40.3899 14.2572 48.006 14.2665 55.48 15.4411C57.7094 15.7913 59.945 16.2468 62.2025 16.1601C64.7772 16.0624 67.2675 15.2644 69.6937 14.4029C75.2039 12.4458 80.5829 10.1262 85.7838 7.46409C86.4462 9.25225 85.7744 11.2326 85.0339 12.9897C82.956 17.9219 80.3048 22.6154 77.1474 26.9464C75.8788 28.6865 74.4946 30.4406 74.0166 32.5355C73.1292 36.4248 75.5758 40.3792 75.2195 44.3507C75.0149 46.6378 73.8838 48.8257 74.0556 51.1144C74.2384 53.5441 75.8788 55.7862 75.6179 58.2097C75.3867 60.3558 73.7041 62.5871 74.7977 64.4543C75.2008 65.1423 75.946 65.9822 75.407 66.5694C75.1383 66.8607 74.6868 66.8685 74.2884 66.853C54.6098 66.0984 34.9078 64.8959 15.2417 65.9062C14.1481 65.962 12.8904 65.962 12.1655 65.1454C11.8187 64.7549 11.6609 64.2405 11.5125 63.7431C11.0797 62.2974 10.6454 60.8501 10.2127 59.4044C9.95333 58.5398 9.69242 57.6503 9.76741 56.7516C9.86427 55.5972 10.5048 54.5621 10.7876 53.4387C11.4828 50.6712 9.95332 47.8325 9.98926 44.9814C10.0174 42.6819 11.0641 40.48 11.0719 38.1805C11.075 37.2972 10.9235 36.414 10.9844 35.5323C11.1875 32.6254 13.6231 30.2887 14.0856 27.4112C14.6183 24.0983 12.4717 21.0287 10.722 18.1574C8.82223 15.0382 7.06465 11.5781 6.08197 8.05137C6.07103 8.01108 6.0601 7.96924 6.05072 7.92895" stroke="#9F8AEF" stroke-width="2" stroke-miterlimit="10"/>
<path d="M9.65027 13.8761L10.2783 11.8493" stroke="#9F8AEF" stroke-miterlimit="10"/>
<path d="M9.96423 15.032C10.4735 14.5935 10.8204 13.9752 10.9266 13.3167" stroke="#9F8AEF" stroke-miterlimit="10"/>
<path d="M10.4314 16.3274C11.3235 15.8331 11.6469 14.7391 11.889 13.7552" stroke="#9F8AEF" stroke-miterlimit="10"/>
<path d="M11.825 18.63C12.3452 18.0056 13.1482 17.6926 13.7825 17.1828C14.4965 16.6079 14.9902 15.7711 15.1433 14.8724" stroke="#9F8AEF" stroke-miterlimit="10"/>
<path d="M13.5903 20.8056C14.348 20.6599 15.0401 20.2074 15.4745 19.5752" stroke="#9F8AEF" stroke-miterlimit="10"/>
<path d="M13.9575 22.5596C15.362 22.0917 16.6259 21.2177 17.5539 20.0726" stroke="#9F8AEF" stroke-miterlimit="10"/>
<path d="M68.9235 23.7853C69.0985 25.2372 70.0968 26.4412 71.0545 27.5538C71.5841 28.1689 72.1137 28.7841 72.6418 29.3993" stroke="#9F8AEF" stroke-miterlimit="10"/>
<path d="M69.4344 22.4744C71.7138 23.8457 73.4635 26.122 76.0038 26.9262" stroke="#9F8AEF" stroke-miterlimit="10"/>
<path d="M72.0231 22.1134C72.8574 22.4496 73.6901 22.7843 74.5244 23.1206" stroke="#9F8AEF" stroke-miterlimit="10"/>
<path d="M73.2495 21.6222C74.6321 22.4806 76.2226 23.0059 77.8473 23.1407" stroke="#9F8AEF" stroke-miterlimit="10"/>
<path d="M76.4475 18.2132C77.7817 18.709 79.2018 18.9771 80.6251 19.0019" stroke="#9F8AEF" stroke-miterlimit="10"/>
<path d="M79.055 17.0603L80.8173 17.4105" stroke="#9F8AEF" stroke-miterlimit="10"/>
<path d="M63.5008 21.5819C64.8475 20.3609 66.2082 19.1274 67.8002 18.2426C69.4687 17.316 71.3326 16.8047 73.1136 16.1167C76.7928 14.6942 80.1157 12.514 83.4059 10.3509" stroke="#9F8AEF" stroke-width="2" stroke-miterlimit="10"/>
<path d="M43.7972 33.081C44.4909 33.036 45.197 33.019 45.8751 33.177C46.5469 33.3335 47.1655 33.6574 47.7764 33.9766C47.9513 34.068 48.1576 34.2276 48.0951 34.4136C48.0701 34.4879 48.0076 34.5422 47.9467 34.5918C46.5547 35.7415 45.1252 36.9083 43.4301 37.5421C41.0898 38.4175 38.487 38.1882 36.0201 37.7838C34.9984 37.6164 34.1298 37.2507 34.8594 36.3117C35.4577 35.5416 36.6857 34.9698 37.5496 34.5654C39.4978 33.6512 41.6569 33.2204 43.7988 33.081H43.7972Z" fill="#9F8AEF" stroke="#9F8AEF" stroke-miterlimit="10"/>
<path d="M23.0297 32.8532C22.1611 32.5278 21.2128 32.4828 20.3113 32.2535C19.0318 31.9281 17.6945 31.2293 16.4681 31.7158C16.4134 32.2008 16.7149 32.6486 17.0039 33.0453C18.1475 34.6165 19.3771 36.2606 21.1721 37.0245C21.5362 37.1795 21.9267 37.2957 22.322 37.2848C22.9078 37.2662 23.4562 36.9672 23.889 36.5736C25.3684 35.2302 24.8373 33.5303 23.0281 32.8547L23.0297 32.8532Z" fill="#9F8AEF" stroke="#9F8AEF" stroke-miterlimit="10"/>
<path d="M24.6482 47.4916C24.9373 47.8836 25.2278 48.2757 25.5169 48.6677C25.6465 48.8443 25.8121 49.038 26.0324 49.0349C26.148 49.0334 26.2543 48.9745 26.3496 48.9094C26.9948 48.4787 27.3947 47.769 27.979 47.2592C28.9492 46.4131 30.3053 46.2039 31.5004 45.7189C31.8301 45.5857 32.1629 45.4183 32.3753 45.1348C32.5878 44.8512 32.6409 44.422 32.4097 44.1539C32.2956 44.0238 32.1332 43.9478 31.9738 43.8781C29.6241 42.8523 27.0026 42.4494 24.4498 42.7237C21.219 43.0708 23.7296 46.2489 24.6467 47.4916H24.6482Z" stroke="#9F8AEF" stroke-width="2" stroke-miterlimit="10"/>
<path d="M37.7824 54.6644C38.6557 54.2584 39.6728 54.4707 40.6336 54.5482C41.5944 54.6257 42.7271 54.466 43.2114 53.6386C43.4332 53.2605 43.7551 52.681 44.1222 52.9243C43.6691 53.9919 42.8646 54.8674 42.074 55.7196C41.5679 56.2666 41.0507 56.8213 40.4055 57.1963C39.69 57.6116 38.8542 57.7836 38.0261 57.8254C34.9422 57.9835 31.9598 56.4541 28.8758 56.6122C27.5979 56.6772 26.3449 57.0321 25.0669 57.0724C23.789 57.1127 22.3876 56.7594 21.6362 55.732C21.3799 55.3803 21.2159 54.9727 21.0284 54.5807C20.241 52.9351 18.9912 51.508 17.457 50.507C17.4539 50.3195 17.5711 50.225 17.568 50.0375C18.1913 49.7446 18.6912 50.5752 19.1521 51.0834C19.813 51.8086 20.9034 51.9806 21.883 51.8737C22.8626 51.7668 23.8062 51.4336 24.7857 51.3267C25.8871 51.2074 26.9979 51.3778 28.0947 51.5498C29.8085 51.8179 31.5661 52.0999 33.0659 52.9646C33.8626 53.4232 34.5657 54.0353 35.3874 54.4475C36.4014 54.9557 36.6451 54.6411 37.7793 54.6675L37.7824 54.6644Z" fill="#9F8AEF" stroke="#9F8AEF" stroke-miterlimit="10"/>
<path d="M28.1462 54.8457C29.1007 54.8627 30.0631 54.9526 30.9677 55.2548C32.3206 55.7057 33.4689 56.5998 34.5891 57.4783C33.8454 56.8725 32.7674 57.0305 31.8082 56.95C30.9911 56.8802 30.1975 56.6137 29.3773 56.5703C28.4118 56.5207 24.5685 57.8518 24.0795 56.7408C23.3749 55.1401 27.4166 54.8317 28.1446 54.8457H28.1462Z" fill="white" stroke="#9F8AEF" stroke-miterlimit="10"/>
<path d="M21.9705 56.6633C22.2204 58.6002 22.7141 60.6657 24.2045 61.9425C25.6059 63.1434 27.5838 63.3836 29.4351 63.4347C31.5254 63.4921 33.6173 63.3728 35.7061 63.255C36.8435 63.1899 38.062 63.0969 38.9463 62.3857C39.9758 61.5598 40.2617 60.1451 40.4773 58.8481" stroke="#9F8AEF" stroke-width="2" stroke-miterlimit="10"/>
<path d="M42.5145 34.4074C43.1535 34.4043 43.7941 34.4012 44.433 34.3981C44.8127 34.3965 45.3173 34.2834 45.3329 33.9069C45.3485 33.5179 44.8252 33.3769 44.433 33.3645C43.5956 33.3382 42.6551 33.349 42.0615 33.9363C42.0052 33.9921 41.9506 34.0618 41.9615 34.1393C41.974 34.2245 42.0599 34.2787 42.1396 34.3113C42.3443 34.3965 42.5723 34.4275 42.7926 34.4012" fill="white"/>
<path d="M21.9314 33.7271C22.397 34.3686 23.2016 34.7545 23.9968 34.7173C23.9437 33.6744 22.7891 32.8346 21.7705 33.0996C21.6612 33.4033 21.7705 33.772 22.0283 33.9688" fill="white"/>
</svg>
