<?xml version="1.0" encoding="UTF-8"?>
<svg id="Layer_2" data-name="Layer 2" xmlns="http://www.w3.org/2000/svg" viewBox="0 0 348.44 364.44">
  <defs>
    <style>
      .cls-1 {
        stroke-width: 0px;
      }

      .cls-1, .cls-2 {
        fill: none;
      }

      .cls-2 {
        stroke: #000;
        stroke-miterlimit: 10;
        stroke-width: 2px;
      }
    </style>
  </defs>
  <path class="cls-2" d="m76.84,164.46c-1.93-6.46-2.65-13.29-2.1-20.01,1.29-15.73,5.56-28.32,12.4-42.55,3.19-6.64,6.72-13.16,11.17-19.02,9.01-11.86,21.59-20.68,35.18-26.78s28.19-9.6,42.86-12.16c19.88-3.46,41.55,4.22,59.22,13.96,20,11.02,36.1,28.97,44.88,50.05,5.19,12.45,7.84,25.78,10.33,39.04,1.15,6.14,1.04,11.23.63,17.47"/>
  <path class="cls-2" d="m304.1,172.27c-8.79-4.81-19.04-6.92-29.02-5.95-3.35.32-5.18,4.87-6.22,8.07-2.06,6.37-2.95,13.05-3.83,19.69-2.73,20.52-5.46,41.05-8.19,61.57-.56,4.2-1.02,8.85,1.42,12.32,2.68,3.81,7.82,4.77,12.43,5.38,4.41.58,8.83,1.12,13.25,1.62,2.85.32,5.85.61,8.51-.48s4.8-4.01,3.99-6.77"/>
  <path class="cls-2" d="m242.73,325.34c20.29-2.95,38.28-18.21,44.49-37.75,1.17-3.67,2.9-7.57,4.44-11.1"/>
  <path class="cls-2" d="m322.5,251.03c-1.59,6.51-4.29,13.62-10.41,16.37-3.15,1.41-6.75,1.41-10.16.9-2.55-.39-5.19-1.11-7.05-2.91-3.61-3.49-2.93-9.35-1.98-14.28,3.26-16.91,6.52-33.81,9.79-50.72,1.53-7.91,4.02-17.05,11.49-20.06,6.56-2.64,14.97,1.88,16.39,8.81.61,2.99.08,6.09-.46,9.1-3.13,17.56-3.75,35.42-7.62,52.8Z"/>
  <path class="cls-2" d="m311.07,227.99c-1.36,4.18-2.22,8.52-2.56,12.91"/>
  <path class="cls-2" d="m306.99,252.95c-.88,4.72-1.75,9.43-2.63,14.15"/>
  <path class="cls-2" d="m313.97,178.7c7.86-46.34-10-96.21-45.5-127.02-15.55-13.49-34.24-23.46-54.28-28.18-7.56-1.78-15.27-2.81-23.01-3.44-10.03-.81-20.14-.93-30.15.13-36.73,3.88-71.36,24.45-92.35,54.83s-27.96,70.06-18.59,105.78"/>
  <path class="cls-2" d="m70.37,262.38c.54,3.47,1.56,6.75,3.68,9.54.57.75,1.23,1.46,2.08,1.87.95.46,2.04.51,3.1.54,8.75.29,18.15.41,25.45-4.42,2.01-1.33,3.84-3.09,4.65-5.36.9-2.54.39-5.33-.13-7.96-5.09-26.02-10.18-52.03-15.26-78.05-.78-3.99-1.88-8.45-5.38-10.52-2.45-1.44-5.48-1.32-8.31-1.16-4.16.24-8.32.48-12.47.72-3.56.21-7.62.67-9.69,3.57-3.28,4.59-2.13,9.38-.5,14.05,1.96,5.58,2.33,11.33,2.9,17.17.79,8.12,2.36,16.15,4.24,24.09,1.87,7.91,4.07,15.79,4.72,23.89.58,7.23,1.82,12.8-5.8,15.93-6.35,2.62-14.49,1.35-18.93-4.17-3.37-4.18-4.36-9.74-5.23-15.04-2.69-16.2-5.38-32.41-8.07-48.61-.4-2.39-.79-4.85-.22-7.2.83-3.47,3.68-6.17,6.9-7.72s6.8-2.11,10.33-2.65c4.18-.64,7.65,3.68,9.33,7.56"/>
  <path class="cls-2" d="m49.4,227.99c1.15,10.42,3.19,20.75,6.09,30.83.41,1.41.83,2.83,1.09,4.27.31,1.73-.22,3.01.75,4.47"/>
  <path class="cls-2" d="m292.08,275.2c-4.49,24.46-25.35,45.03-49.86,49.19-.31-4.24-3.78-7.71-7.71-9.31s-8.3-1.68-12.54-1.75c-5.71-.08-11.42-.17-17.13-.25-5.31-.08-10.82-.12-15.66,2.06s-8.81,7.26-7.93,12.49c1.17,6.95,9.37,9.97,16.33,11.06,11.53,1.8,23.32,1.93,34.89.39,1.7-.23,3.51-.54,4.77-1.71,1.02-.95,1.52-2.32,1.98-3.64,1.14-3.24,2.28-6.49,3.42-9.73"/>
  <path class="cls-1" d="m76.13,163.47l1.59,2.35"/>
  <path class="cls-1" d="m291.57,163.11c.06,1.38-.27,2.77-.95,3.97"/>
  <path class="cls-2" d="m302.66,171.88c1.92,1.58,4.65,1.55,7.05,2.18s4.95,2.78,4.21,5.16"/>
  <path class="cls-2" d="m76.14,162.65l.6,4.92"/>
  <path class="cls-2" d="m291.57,163.11c.09,1.1-.24,2.23-.92,3.1"/>
</svg>