<svg width="77" height="80" viewBox="0 0 77 80" fill="none" xmlns="http://www.w3.org/2000/svg">
<path d="M16.9805 36.1014C16.554 34.6833 16.3949 33.1841 16.5164 31.7089C16.8015 28.256 17.7451 25.4923 19.2566 22.3686C19.9616 20.911 20.7417 19.4797 21.725 18.1934C23.7161 15.5899 26.4961 13.6538 29.4993 12.3148C32.5025 10.9757 35.7289 10.2074 38.9707 9.64548C43.3639 8.88596 48.1526 10.5718 52.0574 12.7099C56.4771 15.129 60.035 19.0693 61.9752 23.6966C63.1222 26.4296 63.7078 29.3557 64.258 32.2665C64.5121 33.6143 64.4878 34.7316 64.3972 36.1014" stroke="#9F8AEF" stroke-width="2" stroke-miterlimit="10"/>
<path d="M67.2015 37.8158C65.2591 36.76 62.994 36.2968 60.7886 36.5097C60.0483 36.58 59.6439 37.5788 59.414 38.2812C58.9588 39.6795 58.7621 41.1459 58.5677 42.6034C57.9644 47.1079 57.3611 51.6145 56.7578 56.119C56.634 57.0409 56.5324 58.0617 57.0716 58.8234C57.6638 59.6598 58.7997 59.8705 59.8184 60.0044C60.793 60.1317 61.7697 60.2502 62.7465 60.36C63.3763 60.4303 64.0393 60.4939 64.6271 60.2546C65.2149 60.0154 65.6878 59.3744 65.5088 58.7685" stroke="#9F8AEF" stroke-width="2" stroke-miterlimit="10"/>
<path d="M53.6397 71.417C58.1235 70.7694 62.099 67.4196 63.4713 63.1303C63.7299 62.3247 64.1122 61.4685 64.4525 60.6937" stroke="#9F8AEF" stroke-width="2" stroke-miterlimit="10"/>
<path d="M71.2677 55.1048C70.9163 56.5339 70.3196 58.0946 68.9672 58.6983C68.2711 59.0078 67.4756 59.0078 66.722 58.8958C66.1585 58.8102 65.5751 58.6522 65.1641 58.2571C64.3663 57.4909 64.5166 56.2046 64.7265 55.1224C65.4469 51.4104 66.1673 47.7006 66.8899 43.9886C67.2281 42.2522 67.7783 40.2459 69.4291 39.5851C70.8787 39.0056 72.7372 39.9978 73.051 41.519C73.1858 42.1754 73.0687 42.8559 72.9493 43.5166C72.2577 47.3713 72.1207 51.2918 71.2654 55.107L71.2677 55.1048Z" stroke="#9F8AEF" stroke-width="2" stroke-miterlimit="10"/>
<path d="M68.7418 50.0472C68.4413 50.9648 68.2512 51.9175 68.1761 52.8811" stroke="#9F8AEF" stroke-width="2" stroke-miterlimit="10"/>
<path d="M67.8402 55.5263C67.6457 56.5624 67.4534 57.5963 67.259 58.6324" stroke="#9F8AEF" stroke-width="2" stroke-miterlimit="10"/>
<path d="M69.3827 39.2273C71.1196 29.055 67.1728 18.1078 59.3278 11.3445C55.8915 8.38327 51.7613 6.19471 47.3328 5.1586C45.6621 4.76786 43.9583 4.54176 42.2479 4.40347C40.0314 4.22566 37.7973 4.19932 35.5852 4.43201C27.4684 5.28372 19.8157 9.79914 15.1773 16.468C10.5388 23.1369 8.99851 31.8472 11.0691 39.6883" stroke="#9F8AEF" stroke-width="2" stroke-miterlimit="10"/>
<path d="M15.5507 57.5963C15.6701 58.358 15.8955 59.078 16.3639 59.6905C16.4899 59.8551 16.6358 60.011 16.8236 60.101C17.0335 60.202 17.2744 60.2129 17.5087 60.2195C19.4423 60.2832 21.5195 60.3095 23.1327 59.2493C23.5769 58.9573 23.9813 58.571 24.1603 58.0727C24.3592 57.5151 24.2465 56.9026 24.1316 56.3253C23.0068 50.6135 21.8819 44.904 20.7593 39.1922C20.587 38.3163 20.3439 37.3373 19.5704 36.8829C19.029 36.5668 18.3594 36.5931 17.7341 36.6283C16.8148 36.6809 15.8955 36.7336 14.9784 36.7863C14.1917 36.8324 13.2945 36.9334 12.837 37.57C12.1122 38.5775 12.3663 39.629 12.7265 40.6542C13.1597 41.879 13.2414 43.1413 13.3674 44.4232C13.542 46.2057 13.8889 47.9684 14.3044 49.7113C14.7176 51.4477 15.2038 53.1775 15.3474 54.9556C15.4756 56.5426 15.7496 57.7653 14.0657 58.4524C12.6624 59.0275 10.8636 58.7488 9.88246 57.537C9.13774 56.6195 8.91896 55.399 8.72671 54.2355C8.13226 50.6794 7.53781 47.1211 6.94336 43.5649C6.85496 43.0403 6.76878 42.5003 6.89474 41.9844C7.07816 41.2227 7.70797 40.63 8.41954 40.2898C9.13111 39.9495 9.92224 39.8266 10.7023 39.708C11.626 39.5676 12.3928 40.5159 12.7641 41.3676" stroke="#9F8AEF" stroke-width="2" stroke-miterlimit="10"/>
<path d="M10.9167 50.0472C11.1708 52.3345 11.6216 54.6021 12.2625 56.8148C12.3531 57.1244 12.4459 57.4361 12.5033 57.7522C12.5718 58.1319 12.4547 58.4129 12.6691 58.7334" stroke="#9F8AEF" stroke-width="2" stroke-miterlimit="10"/>
<path d="M64.5453 60.4105C63.5531 65.7798 58.9433 70.2953 53.527 71.2084C53.4585 70.2777 52.6917 69.516 51.8232 69.1647C50.9547 68.8135 49.989 68.796 49.052 68.7806C47.7902 68.763 46.5284 68.7433 45.2666 68.7257C44.0931 68.7082 42.8755 68.6994 41.8059 69.1779C40.7364 69.6565 39.8591 70.7716 40.0535 71.9197C40.3121 73.4453 42.1242 74.1082 43.6622 74.3475C46.2102 74.7426 48.8156 74.7712 51.3724 74.4331C51.7481 74.3826 52.148 74.3146 52.4265 74.0577C52.6519 73.8492 52.7624 73.5485 52.864 73.2587C53.1159 72.5475 53.3679 71.834 53.6198 71.1228" stroke="#9F8AEF" stroke-width="2" stroke-miterlimit="10"/>
<path d="M66.8833 37.7302C67.3076 38.0771 67.9109 38.0705 68.4412 38.2088C68.9716 38.3471 69.5351 38.819 69.3716 39.3415" stroke="#9F8AEF" stroke-width="2" stroke-miterlimit="10"/>
<path d="M16.8258 35.7041L16.9584 36.7841" stroke="#9F8AEF" stroke-width="2" stroke-miterlimit="10"/>
<path d="M64.4326 35.8051C64.4525 36.0465 64.3795 36.2946 64.2293 36.4856" stroke="#9F8AEF" stroke-width="2" stroke-miterlimit="10"/>
</svg>
